<svg xmlns="http://www.w3.org/2000/svg" viewBox="0 0 32 32" fill="none">
  <rect width="32" height="32" rx="8" fill="url(#grad)"/>
  <path d="M6 20c0-1.5 1-2.5 2-3l2-1 1-2c.5-1 1.5-2 3-2h4c1.5 0 2.5 1 3 2l1 2 2 1c1 .5 2 1.5 2 3v1c0 1-1 2-2 2H8c-1 0-2-1-2-2v-1z" fill="white" fill-opacity="0.9"/>
  <circle cx="11" cy="23" r="2" fill="white" fill-opacity="0.7"/>
  <circle cx="21" cy="23" r="2" fill="white" fill-opacity="0.7"/>
  <rect x="14" y="8" width="4" height="2" rx="1" fill="white" fill-opacity="0.5"/>
  <defs>
    <linearGradient id="grad" x1="0" y1="0" x2="32" y2="32" gradientUnits="userSpaceOnUse">
      <stop offset="0%" stop-color="#6366f1"/>
      <stop offset="100%" stop-color="#7c3aed"/>
    </linearGradient>
  </defs>
</svg>
